<svg width="176" height="14" viewBox="0 0 176 14" fill="none" xmlns="http://www.w3.org/2000/svg">
<path d="M16.8418 14H14.1367L9.9375 9.99609H3.80469V8.02344H11.8418C12.2585 8.02344 12.6491 7.94531 13.0137 7.78906C13.3783 7.6263 13.694 7.4082 13.9609 7.13477C14.2344 6.86133 14.4492 6.54232 14.6055 6.17773C14.7617 5.80664 14.8398 5.41276 14.8398 4.99609C14.8398 4.57943 14.7617 4.1888 14.6055 3.82422C14.4492 3.45964 14.2344 3.14388 13.9609 2.87695C13.694 2.60352 13.3783 2.38867 13.0137 2.23242C12.6491 2.07617 12.2585 1.99805 11.8418 1.99805H2.68164V14H0.679688V-0.00390625H11.8418C12.5319 -0.00390625 13.1797 0.129557 13.7852 0.396484C14.3906 0.656901 14.918 1.01497 15.3672 1.4707C15.8229 1.91992 16.181 2.44727 16.4414 3.05273C16.7083 3.6582 16.8418 4.30599 16.8418 4.99609C16.8418 5.62109 16.7344 6.21354 16.5195 6.77344C16.3047 7.32682 16.0085 7.82487 15.6309 8.26758C15.2533 8.70378 14.8073 9.06836 14.293 9.36133C13.7852 9.64779 13.235 9.83984 12.6426 9.9375L16.8418 14ZM41.3926 14H26.9102V-0.00390625H41.3926V1.99805H28.9121V11.998H41.3926V14ZM39.6934 8.00391H29.9082V6.00195H39.6934V8.00391ZM65.8848 1.99805H53.3848V14H51.3828V-0.00390625H65.8848V1.99805ZM64.166 8.00391H54.3809V6.00195H64.166V8.00391ZM88.5312 14H75.1523V-0.00390625H77.1543V11.998H88.5312V14ZM99.6348 14H97.6328V-0.00390625H99.6348V14ZM125.162 14H116.148C115.178 14 114.296 13.8177 113.502 13.4531C112.708 13.0885 112.027 12.5905 111.461 11.959C110.901 11.3275 110.468 10.5853 110.162 9.73242C109.856 8.87956 109.703 7.9681 109.703 6.99805C109.703 6.03451 109.856 5.12956 110.162 4.2832C110.468 3.43034 110.901 2.68815 111.461 2.05664C112.027 1.41862 112.708 0.917318 113.502 0.552734C114.296 0.181641 115.178 -0.00390625 116.148 -0.00390625H125.162V1.99805H116.148C115.458 1.99805 114.837 2.13151 114.283 2.39844C113.736 2.65885 113.271 3.01693 112.887 3.47266C112.509 3.92188 112.216 4.44922 112.008 5.05469C111.806 5.66016 111.705 6.30794 111.705 6.99805C111.705 7.68815 111.806 8.33919 112.008 8.95117C112.216 9.55664 112.509 10.0872 112.887 10.543C113.271 10.9922 113.736 11.347 114.283 11.6074C114.837 11.8678 115.458 11.998 116.148 11.998H123.16V8.00391H114.684V6.00195H125.162V14ZM150.387 14H148.385V8.00391H138.6V6.00195H148.385V-0.00390625H150.387V14ZM137.604 14H135.602V-0.00390625H137.604V14ZM168.531 14H166.529V1.99805H159.449V-0.00390625H175.611V1.99805H168.531V14Z" fill="white"/>
</svg>
